# xmcd
# 
# Track frame offsets:
#     150
#     15431
#     29064
#     57176
#     74718
#     91271
#     110543
#     129071
#     153208
#     172627
# 
# Disc length: 2713
# 
# Revision: 2
# Processed by: cddbd v1.5.2PL0 Copyright (c) Steve Scherf et al.
# Submitted via: fre:ac v1.1beta1pre5
# 
DISCID=730a970a
DTITLE=limboski - ucieczka saula
DYEAR=2019
DGENRE=jazz
TTITLE0=Na statku
TTITLE1=Chwile
TTITLE2=W naszym nowym miwszkaniu
TTITLE3=Czarna noc duszy
TTITLE4=Kino nocne (Saul Edit)
TTITLE5=Gdzieś tam
TTITLE6=Czy widziałeś juz tę smugę
TTITLE7=Prośba
TTITLE8=Matce ziemi
TTITLE9=Idź przez rzekę
EXTD=
EXTT0=
EXTT1=
EXTT2=
EXTT3=
EXTT4=
EXTT5=
EXTT6=
EXTT7=
EXTT8=
EXTT9=
PLAYORDER=
